<svg width="75" height="75" viewBox="0 0 75 75" fill="none" xmlns="http://www.w3.org/2000/svg">
<path d="M37.5 6.25C20.25 6.25 6.25 20.25 6.25 37.5C6.25 54.75 20.25 68.75 37.5 68.75C54.75 68.75 68.75 54.75 68.75 37.5C68.75 20.25 54.75 6.25 37.5 6.25ZM37.5 62.5C23.7188 62.5 12.5 51.2813 12.5 37.5C12.5 23.7188 23.7188 12.5 37.5 12.5C51.2813 12.5 62.5 23.7188 62.5 37.5C62.5 51.2813 51.2813 62.5 37.5 62.5ZM51.8438 23.6875L31.25 44.2813L23.1563 36.2188L18.75 40.625L31.25 53.125L56.25 28.125L51.8438 23.6875Z" fill="white"/>
</svg>
