<?xml version="1.0" encoding="utf-8"?>
<!-- Generator: Adobe Illustrator 26.4.1, SVG Export Plug-In . SVG Version: 6.00 Build 0)  -->
<svg version="1.1" id="Layer_1" xmlns="http://www.w3.org/2000/svg" xmlns:xlink="http://www.w3.org/1999/xlink" x="0px" y="0px"
	 viewBox="0 0 75 75" style="enable-background:new 0 0 75 75;" xml:space="preserve">
<style type="text/css">
	.st0{fill:#ED2224;}
</style>
<path class="st0" d="M2.9,8.2v58.3h69.9V8.2H2.9z M4.9,10.1h66v54.4h-66L4.9,10.1z M50.5,13V15h3.9V13H50.5z M57.3,13V15h3.9V13
	H57.3z M64.1,13V15H68V13H64.1z M7.8,17.9v43.7H68V17.9H7.8z M9.7,19.8h56.3v39.8H9.7L9.7,19.8z M28.2,21.8v3.9
	c-0.3,0.1-0.6,0.3-0.9,0.5l-3.4-1.9l-0.5,0.9l-2.9,5L20,31l0.8,0.5l2.5,1.4c0,0.2,0,0.4,0,0.5c0,0.2,0,0.4,0,0.5l-2.5,1.4L20,35.9
	l0.5,0.9l2.9,5l0.5,0.8l3.4-1.9c0.3,0.2,0.6,0.4,0.9,0.5v3.9H36v-3.9c0.3-0.1,0.6-0.3,0.9-0.5l3.4,1.9l0.5-0.8l2.9-5l0.5-0.9
	l-0.8-0.5L40.8,34c0-0.2,0-0.4,0-0.5c0-0.2,0-0.4,0-0.5l2.5-1.4l0.8-0.5l-0.5-0.9l-2.9-5l-0.5-0.9l-3.4,1.9
	c-0.3-0.2-0.6-0.4-0.9-0.5v-3.9H28.2z M30.1,23.7H34v3.2l0.6,0.2c0.6,0.2,1.2,0.5,1.6,0.9l0.5,0.4l0.6-0.3l2.2-1.2l1.9,3.3l-2.2,1.2
	l-0.6,0.3l0.1,0.6c0,0.3,0.1,0.6,0.1,1c0,0.4,0,0.7-0.1,1L38.7,35l0.6,0.3l2.2,1.2L39.5,40l-2.2-1.2l-0.6-0.3l-0.5,0.4
	c-0.5,0.4-1,0.7-1.6,0.9L34,40v3.2h-3.9V40l-0.6-0.2c-0.6-0.2-1.2-0.5-1.6-0.9l-0.5-0.4l-0.6,0.3L24.6,40l-1.9-3.3l2.2-1.2l0.6-0.3
	l-0.1-0.6c0-0.3-0.1-0.6-0.1-1c0-0.4,0-0.7,0.1-1l0.1-0.6l-0.6-0.3l-2.2-1.2l1.9-3.3l2.2,1.2l0.6,0.3l0.5-0.4c0.5-0.4,1-0.7,1.6-0.9
	l0.6-0.2V23.7z M32.1,29.6c-2.1,0-3.9,1.8-3.9,3.9c0,2.1,1.8,3.9,3.9,3.9c2.1,0,3.9-1.8,3.9-3.9C36,31.3,34.2,29.6,32.1,29.6z
	 M32.1,31.5c1.1,0,1.9,0.9,1.9,1.9c0,1.1-0.9,1.9-1.9,1.9c-1.1,0-1.9-0.9-1.9-1.9C30.1,32.4,31,31.5,32.1,31.5z M44.7,40.2v2.7
	c-0.3,0.1-0.6,0.3-0.8,0.5l-1.5-0.9l-0.9-0.5L41,42.9L39,46.3l-0.5,0.8l0.8,0.5l1.5,0.9c0,0.2-0.1,0.3-0.1,0.5s0,0.3,0.1,0.5
	l-1.5,0.8l-0.8,0.5l0.5,0.8L41,55l0.5,0.9l0.9-0.5l1.5-0.9c0.3,0.2,0.5,0.4,0.8,0.5v2.7h5.8V55c0.3-0.1,0.6-0.3,0.8-0.5l1.5,0.9
	l0.9,0.5l0.5-0.9l1.9-3.3l0.5-0.8l-0.8-0.5l-1.5-0.8c0-0.2,0.1-0.3,0.1-0.5c0-0.2,0-0.3-0.1-0.5l1.5-0.9l0.8-0.5l-0.5-0.8l-1.9-3.3
	l-0.5-0.8l-0.9,0.5l-1.5,0.9c-0.3-0.2-0.5-0.4-0.8-0.5v-2.7H44.7z M46.6,42.2h1.9v2l0.6,0.2c0.6,0.2,1.1,0.5,1.5,0.9l0.5,0.5
	l0.6-0.3l1.1-0.7l1,1.6l-1.1,0.7l-0.6,0.4l0.2,0.7c0.1,0.3,0.1,0.6,0.1,0.9c0,0.3,0,0.6-0.1,0.9l-0.2,0.7l0.6,0.4l1.1,0.7l-1,1.6
	l-1.1-0.7l-0.6-0.3l-0.5,0.5c-0.5,0.4-1,0.7-1.5,0.9l-0.6,0.2v2h-1.9v-2L46,53.6c-0.6-0.2-1.1-0.5-1.5-0.9l-0.5-0.5l-0.6,0.3
	l-1.1,0.7l-1-1.6l1.1-0.7l0.6-0.4l-0.2-0.7c-0.1-0.3-0.1-0.6-0.1-0.9s0-0.6,0.1-0.9l0.2-0.7l-0.6-0.4l-1.1-0.7l1-1.6l1.1,0.7
	l0.6,0.3l0.5-0.5c0.5-0.4,1-0.7,1.5-0.9l0.6-0.2V42.2z M47.6,47c-1.1,0-1.9,0.9-1.9,1.9c0,1.1,0.9,1.9,1.9,1.9s1.9-0.9,1.9-1.9
	C49.5,47.9,48.7,47,47.6,47z"/>
</svg>
